<?xml version="1.0" encoding="UTF-8" standalone="no"?>
<!-- Created with Inkscape (http://www.inkscape.org/) -->

<svg
   width="3840"
   height="2160"
   viewBox="0 0 3840 2160"
   version="1.1"
   id="svg1"
   xml:space="preserve"
   inkscape:export-filename="baryonyx_skull_flipped_3840x2160"
   inkscape:export-xdpi="96"
   inkscape:export-ydpi="96"
   inkscape:version="1.3.2 (091e20e, 2023-11-25, custom)"
   sodipodi:docname="Baryonyx Skull (Flipped) - Inkscape.svg"
   xmlns:inkscape="http://www.inkscape.org/namespaces/inkscape"
   xmlns:sodipodi="http://sodipodi.sourceforge.net/DTD/sodipodi-0.dtd"
   xmlns="http://www.w3.org/2000/svg"
   xmlns:svg="http://www.w3.org/2000/svg"><sodipodi:namedview
     id="namedview1"
     pagecolor="#ffffff"
     bordercolor="#000000"
     borderopacity="0.25"
     inkscape:showpageshadow="2"
     inkscape:pageopacity="0.0"
     inkscape:pagecheckerboard="0"
     inkscape:deskcolor="#d1d1d1"
     inkscape:document-units="px"
     inkscape:export-bgcolor="#ffffffff"
     inkscape:zoom="0.13631275"
     inkscape:cx="1034.386"
     inkscape:cy="1360.8412"
     inkscape:window-width="1632"
     inkscape:window-height="857"
     inkscape:window-x="-8"
     inkscape:window-y="-8"
     inkscape:window-maximized="1"
     inkscape:current-layer="svg1" /><defs
     id="defs1" /><g
     id="g1"
     inkscape:label="Baryonyx Skull Object Group"
     transform="matrix(-1,0,0,1,3809.2422,0)"><g
       inkscape:groupmode="layer"
       id="layer3"
       inkscape:label="Sockets"><path
         style="display:inline;fill:#000000"
         d="m 440.42157,830.84935 c 0,0 -107.12957,85.70366 -142.83943,45.23248 -35.70985,-40.47117 4.76132,-190.45257 85.70366,-235.68505 80.94235,-45.23249 183.3106,-49.9938 221.40112,-49.9938 38.09051,0 354.71792,-2.38066 385.66646,0 30.94852,2.38065 33.32922,2.38065 33.32922,2.38065 0,0 247.5883,-14.28394 266.6336,-14.28394 19.0452,0 297.5821,-26.18723 330.9113,-33.3292 33.3292,-7.14197 80.9424,-23.80657 102.3683,-23.80657 21.4259,0 304.7241,-47.61315 335.6726,-52.37446 30.9486,-4.76131 201.5094,-40.56955 232.6519,-51.51151 31.1425,-10.94196 121.2032,-53.02643 138.037,-63.9684 16.8338,-10.94196 92.5859,-69.01853 131.3036,-73.22698 38.7177,-4.20844 74.9103,5.05014 101.8444,34.50927 26.9341,29.45913 79.1188,85.85232 149.8207,84.16894 70.7019,-1.68338 138.8788,-11.78365 164.9711,-17.67548 26.0924,-5.89182 47.1346,-5.05013 75.7521,-31.1425 28.6174,-26.09238 70.7019,-140.56214 115.3114,-137.19538 44.6096,3.36676 27.7758,153.18747 42.9262,200.32208 15.1504,47.13461 52.1847,96.79428 63.9684,106.89456 11.7836,10.10027 21.8839,42.92616 36.1926,48.81798 14.3088,5.89183 54.7098,37.03434 65.6518,66.49347 10.942,29.45912 20.2006,68.17684 13.467,82.48556 -6.7335,14.30872 -5.8918,28.61744 -25.2506,26.93406 -19.3589,-1.68338 -33.6676,-28.61744 -37.8761,-37.03434 -4.2084,-8.41689 2.5251,-27.77575 -10.9419,-26.09237 -13.4671,1.68338 -24.409,63.12671 -10.942,94.26922 13.467,31.14251 49.6597,93.42752 63.9684,109.41962 14.3087,15.9921 31.9842,42.08447 39.9803,50.50137 7.996,8.41689 16.4129,34.50926 2.9459,56.39319 -13.4671,21.88388 -53.0265,35.77178 -95.9526,36.61348 -42.9262,0.8417 -345.0927,10.5211 -374.131,8.8377 -29.0383,-1.6833 -148.1373,-6.7335 -159.921,-10.5211 -11.7836,-3.7876 -146.4539,-37.45515 -188.5384,-40.82191 -42.0845,-3.36676 -434.7326,-35.7718 -532.3685,-37.87602 -97.636,-2.10423 -392.2273,-6.31267 -488.6007,-0.84169 -96.3735,5.47098 -311.4251,21.46308 -360.664,29.03828 -49.2388,7.57521 -144.3497,34.93014 -185.5925,41.66364 -41.24275,6.7335 -169.17955,21.8839 -213.78909,-1.2626 -44.60954,-23.1464 -124.14918,-121.62407 -164.55027,-154.02911 -44.50246,-35.69467 -85.13338,-47.9763 -123.30751,-47.9763 -53.02642,10e-6 -85.21346,15.67316 -85.21346,15.67316 z"
         id="path1"
         inkscape:label="Head"
         sodipodi:nodetypes="csssscsssssssssssssssssssssssssssssssssssc" /><path
         style="fill:#ffffff"
         d="m 850.08283,698.3518 c 7.44175,-29.45933 56.41282,-20.74954 119.95829,-21.39797 63.54548,-0.64842 209.44068,-7.78108 228.89338,-8.4295 19.4527,-0.64842 95.9667,-17.50743 117.3646,-16.859 21.398,0.64842 54.4676,-6.48424 62.2486,12.32004 7.7811,18.80427 -25.9369,47.98332 -46.038,57.06124 -20.1011,9.07793 -101.154,40.85066 -136.8173,57.70967 -35.6633,16.859 -108.2867,40.85066 -142.0047,36.96012 -33.718,-3.89054 -47.9833,-27.23378 -78.45919,-44.09278 -30.47589,-16.859 -59.65494,-29.82747 -77.81079,-35.66328 -18.15585,-5.8358 -54.77664,-8.14921 -47.33489,-37.60854 z"
         id="path7"
         sodipodi:nodetypes="zsssssssssz" /><path
         style="fill:#ffffff"
         d="m 1849.9514,785.88893 c -4.7461,-27.65012 18.8043,-81.0529 46.0381,-100.5056 27.2337,-19.45269 142.6531,-63.54547 185.449,-70.67813 42.7959,-7.13265 162.7542,-36.96012 183.5038,-43.44435 20.7495,-6.48423 122.552,-46.03805 136.8173,-48.63174 14.2653,-2.59369 78.4592,-26.58535 97.9119,-18.80428 19.4527,7.78108 55.116,40.20224 48.6317,71.97498 -6.4842,31.77274 -52.5223,77.81079 -61.6002,83.6466 -9.0779,5.8358 -61.6002,38.90539 -79.1076,52.52228 -17.5074,13.61688 -62.2486,53.1707 -82.3498,66.78759 -20.1011,13.61688 -81.7013,41.49908 -101.8024,44.7412 -20.1011,3.24211 -65.4908,0 -84.9435,2.59369 -19.4526,2.59369 -79.756,18.15585 -111.5287,17.50743 -31.7728,-0.64843 -114.1225,-2.5937 -136.8173,-16.21058 -22.6949,-13.61689 -35.4562,-13.84897 -40.2023,-41.49909 z"
         id="path8"
         sodipodi:nodetypes="zsssssssssssssz" /><path
         style="fill:#ffffff"
         d="m 2600.8255,846.84071 c -15.238,-10.37477 -46.038,-38.25697 -42.7959,-68.73286 3.2421,-30.47589 5.8358,-50.57701 11.6716,-60.95178 5.8358,-10.37477 46.6865,-80.40448 53.8191,-91.42767 7.1327,-11.0232 32.4212,-58.35809 39.5538,-62.24863 7.1327,-3.89054 55.7644,-59.00651 84.9435,-75.86552 29.179,-16.859 66.7876,-18.80427 91.4276,-18.15585 24.6401,0.64843 60.3034,5.83581 84.2951,29.17905 23.9916,23.34323 29.179,75.21709 18.1558,92.0761 -11.0232,16.859 -29.8275,49.28016 -50.577,64.84232 -20.7495,15.56215 -67.436,53.1707 -88.1856,75.21709 -20.7495,22.04639 -53.8191,57.06124 -71.3265,73.27182 -17.5074,16.21058 -44.7412,43.44436 -66.7876,46.03805 -22.0464,2.59369 -48.9559,7.13265 -64.1939,-3.24212 z"
         id="path9"
         sodipodi:nodetypes="zssssssssssssz" /><path
         style="fill:#ffffff"
         d="m 2977.5594,641.93898 c 0,0 53.8191,-88.18556 75.8655,-103.74772 22.0464,-15.56215 43.4444,-20.74954 57.7097,-16.21058 14.2653,4.53897 57.0612,23.34324 68.7328,38.25697 11.6716,14.91374 15.5622,47.3349 25.2885,85.59187 9.7264,38.25697 9.7264,59.00651 20.1012,70.0297 10.3747,11.0232 25.2885,49.28017 19.4526,86.24029 -5.8358,36.96012 -26.5853,99.85718 -46.038,112.82564 -19.4527,12.96846 -79.1076,28.53062 -105.0446,29.17904 -25.9369,0.64843 -69.3812,5.83581 -94.6698,-22.69481 -25.2885,-28.53062 -54.4675,-73.92024 -55.1159,-94.66979 -0.6484,-20.74954 -8.4295,-88.18555 1.9452,-117.3646 10.3748,-29.17904 31.7728,-67.43601 31.7728,-67.43601 z"
         id="path10" /></g><g
       inkscape:groupmode="layer"
       id="layer5"
       inkscape:label="Jaw"><path
         style="display:inline;fill:#000000"
         d="m 1583.2178,1707.7878 c 0,0 -284.491,59.76 -346.7761,71.5436 -62.285,11.7837 -265.97381,58.9183 -337.51741,67.3352 -71.5436,8.4169 -232.30628,36.1926 -298.79974,2.525 -66.49346,-33.6675 -122.04496,-122.8866 -132.14524,-153.1874 -10.10027,-30.3009 -10.10027,-69.0186 24.409,-85.8524 34.50926,-16.8337 85.01063,-16.8337 121.20327,-3.3667 36.19265,13.467 162.44606,48.818 202.84715,51.343 40.40109,2.5251 146.45396,4.2085 187.69677,-4.2084 41.2427,-8.4169 243.2482,-75.7521 267.6572,-88.3774 24.409,-12.6253 132.1452,-60.6016 156.5542,-71.5436 24.409,-10.942 135.512,-57.2349 162.4461,-68.1768 26.934,-10.942 231.6001,-83.1313 259.8704,-95.3321 28.2703,-12.2009 218.2092,-89.8396 278.8108,-108.3568 60.6016,-18.5171 284.491,-77.4354 328.2589,-89.2191 43.7678,-11.7836 126.2534,-37.0343 191.9052,-42.0844 65.6517,-5.0502 176.7547,1.6834 245.7733,0 69.0185,-1.6834 99.3193,-13.4671 127.9368,-13.4671 28.6174,0 127.9368,3.3668 159.921,0 31.9841,-3.3667 94.2692,-13.467 122.8866,-20.2005 28.6174,-6.7335 38.7177,-18.5172 53.8681,-13.467 15.1504,5.0501 21.884,13.467 55.5515,6.7335 33.6676,-6.7335 40.4011,-37.0343 55.5515,-31.9842 15.1504,5.0501 40.4011,15.1504 43.7679,31.9842 3.3667,16.8338 14.3087,65.0205 7.7856,75.1208 -6.5231,10.1002 -63.758,46.9242 -73.6478,55.1306 -9.8899,8.2065 -98.8985,65.4414 -116.9948,75.9625 -18.0964,10.5211 -130.2515,73.227 -158.0272,90.0608 -27.7758,16.8337 -144.7706,92.5858 -190.2218,115.3114 -45.4513,22.7256 -190.2218,86.694 -228.0979,97.636 -37.876,10.9419 -204.5305,50.5013 -239.0398,54.7098 -34.5092,4.2084 -140.5621,22.7256 -204.5305,29.4591 -63.9684,6.7335 -170.8629,10.942 -272.7074,19.3589 -101.8444,8.4169 -380.4436,33.6676 -456.1956,44.6095 z"
         id="path2" /><path
         style="fill:#ffffff"
         d="m 2570.3496,1468.0301 c 0,0 -44.0928,33.7181 -77.8108,28.5307 -33.718,-5.1874 -92.0761,-9.078 -97.2635,-41.4991 -5.1873,-32.4212 -12.9684,-40.2023 12.9685,-54.4676 25.9369,-14.2653 31.1243,-27.2337 50.577,-24.64 19.4527,2.5936 55.7644,0 89.4824,-2.5937 33.718,-2.5937 66.1392,-2.5937 90.7793,-7.7811 24.64,-5.1874 51.8738,5.1874 55.7644,16.859 3.8905,11.6716 -16.859,47.9833 -31.1244,57.0612 -14.2653,9.078 -93.3729,28.5306 -93.3729,28.5306 z"
         id="path11" /></g><g
       inkscape:groupmode="layer"
       id="layer6"
       inkscape:label="Teeth"><path
         style="fill:#000000"
         d="m 312.46125,911.19653 c 2.38066,-9.52263 36.30502,-16.06944 41.06634,-11.30812 4.76131,4.76131 5.95164,86.89398 -1.19033,88.08431 -7.14197,1.19033 -39.87601,-76.77619 -39.87601,-76.77619 z"
         id="path3" /><path
         style="fill:#000000"
         d="m 371.97768,887.98513 c 11.01054,-17.85493 42.50528,-17.8861 41.06634,-11.30812 -2.08308,9.52262 19.96216,109.76999 8.92746,99.39243 -25.2302,-23.7277 -49.9938,-88.08431 -49.9938,-88.08431 z"
         id="path4"
         sodipodi:nodetypes="cssc" /><path
         style="fill:#000000;stroke-width:0.946809"
         d="m 439.02914,850.58087 c 11.64196,-16.48604 40.19617,-13.64739 38.27998,-7.33527 -2.77397,9.13775 7.88842,109.33954 -1.14993,98.16935 -20.66567,-25.54006 -37.13005,-90.83408 -37.13005,-90.83408 z"
         id="path5"
         sodipodi:nodetypes="cssc" /><path
         style="fill:#000000;stroke-width:0.946809"
         d="m 505.45981,837.30615 c 14.19282,-14.34882 40.40448,1.17822 37.47707,7.08965 -4.23785,8.55768 -10.48397,91.2945 -17.56387,78.79091 -16.18778,-28.58882 -19.9132,-85.88056 -19.9132,-85.88056 z"
         id="path5-3"
         sodipodi:nodetypes="cssc" /><path
         style="fill:#000000;stroke-width:0.946809"
         d="m 571.60904,847.13024 c 15.80449,-12.55161 39.97478,5.99393 36.36251,11.51355 -5.22929,7.99048 -21.30919,89.3897 -26.84556,76.13024 -12.65859,-30.31708 -9.51695,-87.64379 -9.51695,-87.64379 z"
         id="path5-3-0"
         sodipodi:nodetypes="cssc" /><path
         style="fill:#000000;stroke-width:0.946809"
         d="m 660.83485,914.44503 c 15.80449,-12.55161 36.99895,19.9803 33.38668,25.49992 -5.22929,7.99048 -27.26083,86.41385 -31.60687,75.53505 -12.18838,-30.50914 -1.77981,-101.03497 -1.77981,-101.03497 z"
         id="path5-3-0-2"
         sodipodi:nodetypes="cssc" /><path
         style="fill:#000000;stroke-width:0.946809"
         d="m 709.17334,967.1022 c 15.80449,-12.55161 40.27236,12.83832 36.66009,18.35794 -5.22929,7.99046 -24.58259,124.80196 -30.11896,111.54256 -12.65859,-30.3171 -6.54113,-129.9005 -6.54113,-129.9005 z"
         id="path5-3-0-2-3"
         sodipodi:nodetypes="cssc" /><path
         style="fill:#000000;stroke-width:0.946809"
         d="m 757.78214,1018.936 c 8.9601,-12.5516 42.48251,9.8675 38.44559,15.0846 -30.82135,39.8318 -10.73794,126.3041 -18.51326,114.2208 -36.16758,-56.2067 -19.93233,-129.3054 -19.93233,-129.3054 z"
         id="path5-3-0-2-3-4"
         sodipodi:nodetypes="cssc" /><path
         style="fill:#000000;stroke-width:0.946809"
         d="m 810.11532,1043.7125 c 9.59858,-10.701 39.79654,2.4183 37.18783,8.4771 -17.90221,41.5785 2.62996,132.597 -5.89469,121.03 -42.97299,-58.3095 -31.29314,-129.5071 -31.29314,-129.5071 z"
         id="path5-3-0-2-3-4-5"
         sodipodi:nodetypes="cssc" /><path
         style="fill:#000000;stroke-width:0.946809"
         d="m 861.44849,1053.0665 c 9.59858,-10.701 39.79654,2.4183 37.18783,8.4771 -17.90221,41.5785 2.62996,132.597 -5.89469,121.03 -42.97299,-58.3095 -31.29314,-129.5071 -31.29314,-129.5071 z"
         id="path5-3-0-2-3-4-5-2"
         sodipodi:nodetypes="cssc" /><path
         style="fill:#000000;stroke-width:0.946809"
         d="m 923.12139,1048.267 c 12.60813,-13.9258 53.95678,-12.943 51.95085,-6.6588 -8.76396,27.4557 33.66016,141.0341 23.19775,131.1851 -53.57322,-50.4322 -75.1486,-124.5263 -75.1486,-124.5263 z"
         id="path5-3-0-2-3-4-5-5"
         sodipodi:nodetypes="cssc" /><path
         style="fill:#000000;stroke-width:0.946809"
         d="m 999.31432,1037.2334 c 12.60808,-13.9258 53.95678,-12.943 51.95088,-6.6588 -8.764,27.4557 33.6601,141.0341 23.1977,131.1851 -53.5732,-50.4322 -75.14858,-124.5263 -75.14858,-124.5263 z"
         id="path5-3-0-2-3-4-5-5-6"
         sodipodi:nodetypes="cssc" /><path
         style="fill:#000000;stroke-width:0.946809"
         d="m 1081.0841,1027.7286 c 12.6081,-13.9258 54.5005,-18.0966 52.4946,-11.8124 -8.764,27.4557 40.2909,119.9058 29.8285,110.0568 -53.5732,-50.4322 -82.3231,-98.2444 -82.3231,-98.2444 z"
         id="path5-3-0-2-3-4-5-5-0"
         sodipodi:nodetypes="cssc" /><path
         style="fill:#000000;stroke-width:0.946809"
         d="m 1157.7719,1006.12 c 12.6081,-13.9258 50.607,-15.79724 49.2726,-9.33704 -9.3591,45.31064 20.2689,116.03724 9.8065,106.18824 -53.5732,-50.4322 -59.0791,-96.8512 -59.0791,-96.8512 z"
         id="path5-3-0-2-3-4-5-5-67"
         sodipodi:nodetypes="cssc" /><path
         style="fill:#000000;stroke-width:0.946809"
         d="m 1242.3143,992.66866 c 5.1685,-16.90162 55.4447,-15.02608 51.9509,-6.6588 -11.105,26.59524 27.1133,114.54934 16.6509,104.70034 -53.5732,-50.4322 -68.6018,-98.04154 -68.6018,-98.04154 z"
         id="path5-3-0-2-3-4-5-5-4"
         sodipodi:nodetypes="cssc" /><path
         style="fill:#000000;stroke-width:0.946809"
         d="m 1337.2375,987.90184 c 12.6081,-13.9258 49.4985,-10.71382 47.4926,-4.42962 -8.764,27.45568 24.1861,125.15128 13.7237,115.30228 -53.5732,-50.4322 -61.2163,-110.87266 -61.2163,-110.87266 z"
         id="path5-3-0-2-3-4-5-5-7"
         sodipodi:nodetypes="cssc" /><path
         style="fill:#000000;stroke-width:0.946809"
         d="m 1426.3807,974.0704 c 12.6081,-13.9258 54.3365,-12.80889 51.9509,-6.6588 -15.7302,40.5521 42.1636,131.5655 30.1639,123.6616 -76.1436,-50.1535 -82.1148,-117.0028 -82.1148,-117.0028 z"
         id="path5-3-0-2-3-4-5-5-40"
         sodipodi:nodetypes="cssc" /><path
         style="fill:#000000;stroke-width:0.946809"
         d="m 1509.8298,972.68121 c 12.6081,-13.9258 63.9881,-17.95865 61.9822,-11.67445 -8.764,27.4557 24.2988,115.73004 12.3305,107.77874 -62.4899,-41.5154 -74.3127,-96.10429 -74.3127,-96.10429 z"
         id="path5-3-0-2-3-4-5-5-9"
         sodipodi:nodetypes="cssc" /><path
         style="fill:#000000;stroke-width:0.946809"
         d="m 1613.7615,964.17982 c 12.6081,-13.9258 56.186,-9.59923 54.1801,-3.31503 -8.764,27.4557 20.285,141.03411 9.8226,131.18511 -53.5732,-50.4322 -64.0027,-127.87008 -64.0027,-127.87008 z"
         id="path5-3-0-2-3-4-5-5-42"
         sodipodi:nodetypes="cssc" /><path
         style="fill:#000000;stroke-width:0.946809"
         d="m 1724.0453,964.92533 c 12.6081,-13.9258 62.5949,-10.15653 60.589,-3.87233 -8.764,27.4557 24.148,139.1003 14.5596,128.3986 -65.1768,-72.7445 -75.1486,-124.52627 -75.1486,-124.52627 z"
         id="path5-3-0-2-3-4-5-5-61"
         sodipodi:nodetypes="cssc" /><path
         style="fill:#000000;stroke-width:0.946809"
         d="m 1823.7247,963.79514 c 12.6081,-13.9258 59.8084,-10.43518 57.8025,-4.15098 -8.764,27.4557 24.8022,136.36494 13.445,127.56264 -67.2269,-52.1041 -71.2475,-123.41166 -71.2475,-123.41166 z"
         id="path5-3-0-2-3-4-5-5-2"
         sodipodi:nodetypes="cssc" /><path
         style="fill:#000000"
         d="m 464.66499,1622.8395 c -24.9796,-27.8867 -19.64939,-111.1398 0.30331,-114.1948 5.84897,33.645 41.12468,66.8824 34.5769,89.0203 -13.67547,3.7879 -30.52542,11.6599 -34.88021,25.1745 z"
         id="path6"
         sodipodi:nodetypes="cccc" /><path
         style="fill:#000000"
         d="m 518.90757,1591.3834 c -4.92956,-3.8045 -4.36687,-92.0669 27.51436,-110.6822 -4.28873,40.3662 7.85187,89.4292 13.67833,101.3559 5.82646,11.9266 -30.5003,4.9416 -41.19269,9.3263 z"
         id="path6-8"
         sodipodi:nodetypes="cczc" /><path
         style="fill:#000000"
         d="m 578.95552,1589.6796 c -4.05072,-4.7293 3.08354,-94.7035 38.08952,-106.4306 -12.42555,38.6449 0.86589,92.8315 4.13934,105.6953 3.27347,12.8638 -30.86727,-1.3782 -42.22886,0.7353 z"
         id="path6-8-2"
         sodipodi:nodetypes="cczc" /><path
         style="fill:#000000"
         d="m 642.45363,1604.8854 c -3.92943,-4.8306 4.65243,-85.4771 39.94467,-96.3122 -13.402,38.3172 0.44693,91.4317 3.39296,104.3744 2.94606,12.9427 -31.92607,-9.8868 -43.33763,-8.0622 z"
         id="path6-8-2-1"
         sodipodi:nodetypes="cczc" /><path
         style="fill:#000000"
         d="m 729.2557,1629.0471 c -4.92956,-3.8045 -4.01628,-61.2156 30.66961,-85.0897 -2.8864,44.9238 5.74837,76.8082 11.57483,88.7349 5.82646,11.9266 -31.55205,-8.0299 -42.24444,-3.6452 z"
         id="path6-8-2-1-0"
         sodipodi:nodetypes="cczc" /><path
         style="fill:#000000"
         d="m 830.5968,1653.17 c -4.92956,-3.8045 -2.61395,-60.5145 28.9167,-101.9177 3.77467,52.2861 8.55303,84.5211 14.37949,96.4478 5.82646,11.9266 -32.6038,1.0852 -43.29619,5.4699 z"
         id="path6-8-2-1-5"
         sodipodi:nodetypes="cczc" /><path
         style="fill:#000000"
         d="m 904.08651,1650.7368 c -4.92956,-3.8045 -8.57386,-83.3024 23.30737,-101.9177 -4.28873,40.3662 7.1507,84.8717 12.97716,96.7984 5.82646,11.9266 -25.59214,0.7346 -36.28453,5.1193 z"
         id="path6-8-2-1-8"
         sodipodi:nodetypes="cczc" /><path
         style="fill:#000000"
         d="m 979.10083,1646.4809 c -4.92956,-3.8045 -11.72911,-91.3658 20.15207,-109.9811 3.4241,45.2744 17.3176,86.6246 23.1441,98.5513 5.8264,11.9266 -32.60378,7.0451 -43.29617,11.4298 z"
         id="path6-8-2-1-3"
         sodipodi:nodetypes="cczc" /><path
         style="fill:#000000"
         d="m 1054.2701,1628.4917 c -4.9296,-3.8045 -4.3669,-83.3023 27.5143,-101.9176 -4.2887,40.3662 12.0589,71.1989 17.8853,83.1256 5.8265,11.9266 -34.7072,14.4073 -45.3996,18.792 z"
         id="path6-8-2-1-00"
         sodipodi:nodetypes="cczc" /><path
         style="fill:#000000"
         d="m 1170.5515,1591.1013 c -4.9295,-3.8045 -14.5337,-71.3825 27.865,-116.2915 3.4241,44.2226 22.2258,80.6646 28.0522,92.5913 5.8265,11.9266 -45.2248,19.3155 -55.9172,23.7002 z"
         id="path6-8-2-1-2"
         sodipodi:nodetypes="cczc" /><path
         style="fill:#000000"
         d="m 1272.4607,1547.8633 c -4.9295,-3.8045 -15.5855,-76.9919 22.9568,-113.4869 6.2288,39.665 10.6566,83.1187 16.483,95.0454 5.8265,11.9266 -28.7474,14.0568 -39.4398,18.4415 z"
         id="path6-8-2-1-84"
         sodipodi:nodetypes="cczc" /><path
         style="fill:#000000"
         d="m 1328.7399,1522.665 c -4.9295,-3.8045 -8.2232,-72.4342 23.658,-91.0495 -4.2887,40.3662 9.9554,57.8767 15.7818,69.8034 5.8265,11.9266 -28.7474,16.8614 -39.4398,21.2461 z"
         id="path6-8-2-1-7"
         sodipodi:nodetypes="cczc" /><path
         style="fill:#000000"
         d="m 1389.1121,1496.6215 c -4.9295,-3.8045 -16.2866,-93.8198 15.5946,-112.4351 7.2805,43.872 15.5647,83.1187 21.3911,95.0454 5.8265,11.9266 -26.2933,13.005 -36.9857,17.3897 z"
         id="path6-8-2-1-79"
         sodipodi:nodetypes="cczc" /><path
         style="fill:#000000"
         d="m 1459.1487,1457.3019 c -4.9295,-3.8045 -22.5971,-63.3191 9.2841,-81.9344 -4.2887,40.3662 26.0822,60.6814 31.9086,72.6081 5.8265,11.9266 -30.5003,4.9416 -41.1927,9.3263 z"
         id="path6-8-2-1-36"
         sodipodi:nodetypes="cczc" /><path
         style="fill:#000000"
         d="m 1549.8648,1430.4486 c -4.9295,-3.8045 -1.2116,-83.3023 30.6696,-101.9176 -4.2887,40.3662 8.5531,69.0954 14.3795,81.0221 5.8265,11.9266 -34.3567,16.5108 -45.0491,20.8955 z"
         id="path6-8-2-1-4"
         sodipodi:nodetypes="cczc" /><path
         style="fill:#000000"
         d="m 1621.3046,1401.4381 c -4.9295,-3.8045 -5.0679,-64.0202 27.865,-115.9409 7.2805,45.6249 5.3978,87.3257 11.2242,99.2524 5.8265,11.9266 -28.3968,12.3038 -39.0892,16.6885 z"
         id="path6-8-2-1-794"
         sodipodi:nodetypes="cczc" /><path
         style="fill:#000000"
         d="m 1697.566,1374.6469 c 2.7833,-31.8511 -3.3151,-90.314 28.5661,-108.9293 -4.2887,40.3662 13.1107,75.4059 25.5981,86.2809 12.4875,10.8749 -43.4718,18.2637 -54.1642,22.6484 z"
         id="path6-8-2-1-05"
         sodipodi:nodetypes="cczc" /></g></g></svg>
